<?xml version="1.0"?>
<svg version="1.1" xmlns="http://www.w3.org/2000/svg" width="242" height="93" style=""><path fill="#" d="M16.3916015625,42.14208984375q-0.048828125-0.64697265625,0.10986328125-1.220703125t0.59814453125-0.9521484375t1.4892578125-0.37841796875q0.244140625,0,0.59814453125,0.048828125t0.7080078125,0.15869140625t0.57373046875,0.30517578125t0.2197265625,0.537109375q0,0.9033203125,0.06103515625,2.38037109375t0.15869140625,3.076171875t0.18310546875,3.125t0.15869140625,2.47802734375q1.904296875-0.09765625,3.8330078125-0.09765625t3.80859375-0.09765625l3.369140625-0.09765625l0-2.4169921875q0-4.052734375-0.15869140625-8.11767578125t-0.54931640625-8.11767578125q0-0.29296875,0.244140625-0.47607421875t0.57373046875-0.28076171875t0.68359375-0.1220703125t0.54931640625-0.0244140625q0.5615234375,0,1.20849609375,0.1708984375t0.74462890625,0.732421875l0.146484375,1.0498046875q0.6103515625,4.39453125,0.830078125,8.69140625t0.3173828125,8.59375q0.29296875,0.048828125,0.62255859375,0.15869140625t0.67138671875,0.20751953125q0.244140625,0.09765625,0.69580078125,0.29296875t0.45166015625,0.6103515625q0,0.390625-0.341796875,0.6103515625t-0.76904296875,0.32958984375t-0.830078125,0.13427734375t-0.50048828125,0.0244140625q0.048828125,1.806640625,0.048828125,3.60107421875l0,3.60107421875l0,7.8857421875l0,4.39453125q0,0.29296875-0.28076171875,0.52490234375t-0.67138671875,0.37841796875t-0.81787109375,0.1953125t-0.76904296875,0.048828125t-0.8056640625-0.048828125t-0.830078125-0.1953125t-0.64697265625-0.3662109375t-0.28076171875-0.537109375l0-1.0498046875q0.09765625-4.638671875,0.2197265625-9.19189453125t0.244140625-9.14306640625q-2.6611328125,0.09765625-5.40771484375,0.1220703125t-5.45654296875,0.1220703125q0.29296875,3.4423828125,0.67138671875,6.87255859375t0.79345703125,6.87255859375q0,0.29296875-0.28076171875,0.52490234375t-0.6591796875,0.37841796875t-0.8056640625,0.1953125t-0.76904296875,0.048828125q-0.7080078125,0-1.55029296875-0.244140625t-0.93994140625-0.9033203125q-0.29296875-2.587890625-0.54931640625-5.712890625t-0.45166015625-6.38427734375t-0.30517578125-6.38427734375t-0.10986328125-5.6640625q0-0.6103515625-0.048828125-1.25732421875z M43.800537109375,48.990234375l0.146484375-0.29296875q0.390625-0.341796875,1.1962890625-1.025390625t1.7578125-1.55029296875t1.9775390625-1.81884765625t1.84326171875-1.85546875t1.3427734375-1.69677734375t0.52490234375-1.35498046875q0-0.29296875,0.28076171875-0.52490234375t0.634765625-0.37841796875t0.72021484375-0.1953125t0.634765625-0.048828125q0.5615234375,0,1.28173828125,0.1708984375t0.96435546875,0.830078125q-0.5615234375,4.8583984375-1.03759765625,9.53369140625t-0.47607421875,9.50927734375q0,3.2958984375,0.40283203125,6.57958984375t0.40283203125,6.48193359375q0,0.390625-0.35400390625,0.62255859375t-0.79345703125,0.35400390625t-0.91552734375,0.1708984375t-0.74462890625,0.048828125q-1.1474609375,0-1.69677734375-0.40283203125t-0.76904296875-1.025390625t-0.2197265625-1.416015625t-0.048828125-1.64794921875q-0.09765625-1.7578125-0.18310546875-3.47900390625t-0.08544921875-3.47900390625q0-4.00390625,0.20751953125-7.97119140625t0.84228515625-7.92236328125q-0.5615234375,0.5615234375-1.33056640625,1.30615234375t-1.66015625,1.4404296875t-1.81884765625,1.171875t-1.7333984375,0.47607421875q-0.244140625,0-0.74462890625-0.09765625t-0.54931640625-0.5126953125z M62.1640625,56.27783203125q-0.06103515625-0.81787109375,0.09765625-1.50146484375t0.634765625-1.11083984375t1.52587890625-0.42724609375q0.244140625,0,0.59814453125,0.06103515625t0.69580078125,0.15869140625t0.57373046875,0.29296875t0.23193359375,0.537109375l0,2.7587890625q0.9521484375-1.0986328125,2.0751953125-1.57470703125t2.5634765625-0.47607421875q1.0986328125,0,2.1728515625,0.50048828125t2.0263671875,1.33056640625t1.64794921875,1.8310546875t1.01318359375,2.001953125q0.1953125-0.9033203125,0.439453125-2.20947265625t0.72021484375-2.50244140625t1.25732421875-2.05078125t2.0751953125-0.8544921875q1.3916015625,0,2.34375,1.0009765625t1.55029296875,2.60009765625t0.9033203125,3.57666015625t0.45166015625,3.90625t0.146484375,3.60107421875l0,2.62451171875q0,0.29296875-0.2197265625,0.47607421875t-0.54931640625,0.28076171875t-0.68359375,0.1220703125t-0.54931640625,0.0244140625q-0.7568359375,0-1.37939453125-0.23193359375t-0.62255859375-1.18408203125l0-2.197265625t-0.048828125-2.84423828125t-0.1708984375-3.0517578125t-0.3173828125-2.77099609375t-0.50048828125-2.001953125t-0.74462890625-0.78125q-0.6103515625,0-0.87890625,0.68359375t-0.45166015625,1.7333984375t-0.28076171875,2.2216796875t-0.2685546875,2.2216796875t-0.54931640625,1.72119140625t-1.03759765625,0.67138671875q-0.7080078125,0-1.2451171875-0.67138671875t-1.06201171875-1.67236328125t-1.0498046875-2.1484375t-1.15966796875-2.1484375q-0.634765625-1.025390625-1.3671875-1.66015625q-0.6591796875-0.6103515625-1.4892578125-0.5859375l-0.1220703125,0q-1.0986328125,0.048828125-1.72119140625,0.79345703125t-0.9521484375,1.81884765625t-0.40283203125,2.30712890625t-0.0732421875,2.16064453125q0,0.87890625,0.146484375,2.05078125q0.09765625,0.78125,0.09765625,1.4892578125q0,0.3662109375-0.0244140625,0.7080078125q-0.0732421875,1.025390625-0.54931640625,1.72119140625t-1.77001953125,0.69580078125q-0.48828125,0-1.220703125-0.09765625t-0.9765625-0.6591796875q-0.5615234375-1.0009765625-0.8544921875-2.52685546875t-0.439453125-3.1494140625t-0.1708984375-3.22265625t-0.0244140625-2.74658203125q0-0.8056640625-0.06103515625-1.62353515625z M92.954345703125,53.5556640625q0-1.1474609375,0.45166015625-1.69677734375t1.64794921875-0.54931640625q0.7080078125,0,1.33056640625,0.29296875t0.62255859375,1.2451171875q0.09765625,1.3916015625,0.09765625,2.91748046875t0.2685546875,2.89306640625q0.6103515625-1.0009765625,1.37939453125-2.001953125t1.69677734375-1.7822265625t2.0263671875-1.25732421875t2.392578125-0.47607421875q1.7578125,0,2.978515625,0.732421875t2.01416015625,1.904296875t1.1474609375,2.64892578125t0.35400390625,2.96630859375q0,2.294921875-0.69580078125,3.74755859375t-1.84326171875,2.28271484375t-2.60009765625,1.123046875t-2.91748046875,0.29296875q-1.2939453125,0-2.4169921875-0.50048828125t-1.5625-1.89208984375q0-0.390625,0.57373046875-0.48828125t0.81787109375-0.09765625q0.8056640625,0,1.1962890625,0.439453125q0.29296875,0.341796875,0.64697265625,0.69580078125t0.74462890625,0.35400390625q0.7568359375,0,1.5869140625-0.42724609375t1.52587890625-1.123046875t1.171875-1.64794921875t0.47607421875-1.953125q0-0.8544921875-0.146484375-2.1240234375t-0.50048828125-2.44140625t-0.9765625-2.0263671875t-1.57470703125-0.8544921875q-1.4404296875,0-2.60009765625,1.318359375t-1.9287109375,3.173828125t-1.1962890625,3.857421875t-0.42724609375,3.3447265625t0.1708984375,3.3935546875t0.35400390625,4.26025390625t0.35400390625,4.26025390625t0.1708984375,3.3935546875q0,0.341796875-0.28076171875,0.54931640625t-0.67138671875,0.32958984375t-0.79345703125,0.146484375t-0.59814453125,0.0244140625q-0.6591796875,0-1.37939453125-0.146484375t-0.98876953125-0.9033203125q-0.341796875-1.1962890625-0.634765625-3.40576171875t-0.52490234375-4.8828125t-0.40283203125-5.615234375t-0.29296875-5.67626953125t-0.18310546875-5.0048828125t-0.06103515625-3.61328125z M116.359375,71.060546875q0-0.7080078125,0.06103515625-1.4892578125t0.10986328125-1.46484375l0.146484375-3.662109375q0.244140625-4.39453125,0.59814453125-8.642578125t0.59814453125-8.59375q0.146484375-2.392578125,0.2197265625-4.69970703125t0.2197265625-4.69970703125q-0.09765625-0.1953125-0.09765625-0.2685546875q0-0.341796875,0.25634765625-0.537109375t0.59814453125-0.32958984375t0.72021484375-0.18310546875t0.57373046875-0.048828125l0.5615234375,0q0.7568359375,0.09765625,1.0986328125,0.47607421875t0.439453125,0.9033203125t0.048828125,1.123046875t-0.048828125,1.11083984375q0,3.5400390625-0.1708984375,7.21435546875t-0.390625,7.373046875t-0.40283203125,7.3974609375t-0.18310546875,7.31201171875l0,1.708984375q0,1.1474609375-0.64697265625,1.513671875t-1.79443359375,0.3662109375q-1.0009765625,0-1.7578125-0.439453125t-0.7568359375-1.4404296875z M127.55737304688,63.39453125q0-1.708984375,0.37841796875-4.0283203125t1.28173828125-4.39453125t2.38037109375-3.52783203125t3.72314453125-1.45263671875q2.099609375,0,3.1494140625,1.20849609375t1.0498046875,3.25927734375q0,1.3427734375-0.50048828125,2.94189453125t-1.42822265625,3.02734375t-2.197265625,2.38037109375t-2.83203125,0.9521484375l-0.634765625-0.048828125q0,0.6591796875,0.1953125,1.77001953125t0.57373046875,2.20947265625t0.9765625,1.9287109375t1.45263671875,0.830078125q1.2451171875,0,2.392578125-1.0009765625t2.1728515625-2.2216796875t1.904296875-2.2216796875t1.611328125-1.0009765625q0.390625,0,0.8056640625,0.1220703125t0.4638671875,0.68359375q0,0.341796875-0.18310546875,0.5615234375t-0.32958984375,0.48828125q-0.7568359375,1.2939453125-1.64794921875,2.4658203125t-2.01416015625,2.1240234375t-2.45361328125,1.50146484375t-2.94189453125,0.54931640625q-2.099609375,0-3.4912109375-0.74462890625t-2.24609375-2.001953125t-1.23291015625-2.9052734375t-0.37841796875-3.45458984375z M131.92749023438,61.5390625l0.68359375,0.6103515625q0.48828125,0.439453125,0.9765625,0.1953125t0.87890625-0.89111328125t0.72021484375-1.59912109375t0.5859375-1.953125t0.37841796875-1.953125t0.1220703125-1.5869140625l0-0.830078125t-0.0732421875-0.87890625t-0.25634765625-0.69580078125t-0.57373046875-0.35400390625q-0.1220703125-0.0244140625-0.2197265625-0.0244140625q-0.830078125,0-1.416015625,1.0498046875q-0.634765625,1.171875-1.025390625,2.84423828125t-0.5615234375,3.43017578125t-0.2197265625,2.63671875z"/><path fill="#" d="M152.30419921875,45.32421875q0.13671875-0.642578125,0.6015625-1.298828125t0.888671875-1.244140625q0.24609375-0.369140625,0.5400390625-0.84765625t0.6015625-0.8955078125t0.6904296875-0.697265625t0.79296875-0.2802734375l0.19140625,0q0.177734375,0,0.3896484375,0.0546875t0.3896484375,0.1708984375t0.177734375,0.3349609375q0,0.2734375-0.205078125,0.615234375t-0.341796875,0.587890625q-0.724609375,1.3125-1.162109375,2.1259765625t-0.7724609375,1.2783203125t-0.642578125,0.62890625t-0.8134765625,0.1640625q-0.24609375,0-0.57421875-0.0546875t-0.546875-0.2734375q-0.19140625-0.13671875-0.205078125-0.369140625z M160.36609375,51.873046875q0-0.560546875,0.328125-0.9638671875t0.7998046875-0.65625t1.0322265625-0.3759765625t1.0390625-0.123046875q0.369140625,0,0.984375,0.109375t1.203125,0.328125t1.0185546875,0.57421875t0.4306640625,0.833984375q0,0.21875-0.1640625,0.3896484375t-0.341796875,0.1708984375q-0.369140625,0-0.669921875-0.2392578125t-0.6220703125-0.505859375t-0.7041015625-0.505859375t-0.861328125-0.2392578125t-0.8681640625,0.3076171875t-0.3896484375,0.8134765625q0,0.833984375,0.587890625,1.6337890625t1.2919921875,1.681640625t1.2919921875,1.8525390625t0.587890625,2.146484375q0,0.505859375-0.2119140625,0.8544921875t-0.560546875,0.5673828125t-0.7861328125,0.3349609375t-0.84765625,0.1162109375q-0.451171875,0-1.052734375-0.2119140625t-1.134765625-0.560546875t-0.8955078125-0.8134765625t-0.3623046875-0.970703125q0-0.24609375,0.3486328125-0.314453125t0.5126953125-0.068359375q0.08203125,0,0.2529296875,0.0546875t0.3349609375,0.123046875t0.2939453125,0.150390625t0.1025390625,0.177734375q0.13671875,0.1640625,0.4169921875,0.4853515625t0.560546875,0.51953125t0.4921875,0.1435546875t0.2119140625-0.615234375q0-1.06640625-0.57421875-1.9619140625t-1.2509765625-1.75t-1.2509765625-1.6953125t-0.57421875-1.7978515625z M180.65529296875,51.421875q0-0.95703125,0.0888671875-2.48828125t0.2119140625-3.158203125t0.3076171875-3.0830078125t0.4033203125-2.2353515625q0.08203125-0.341796875,0.3896484375-0.41015625t0.6220703125-0.068359375q0.423828125,0,0.7314453125,0.150390625t0.3076171875,0.65625q0,2.48828125-0.3076171875,4.9833984375t-0.3349609375,4.9833984375q0.423828125-0.642578125,1.09375-0.9638671875t1.421875-0.3212890625q1.0390625,0,1.791015625,0.423828125t1.216796875,1.09375t0.6904296875,1.5517578125t0.2255859375,1.7978515625q0,0.505859375-0.1025390625,1.2646484375t-0.3076171875,1.599609375t-0.51953125,1.66796875t-0.7451171875,1.4833984375t-0.9912109375,1.0595703125t-1.23046875,0.4033203125q-0.13671875,0-0.3623046875-0.041015625t-0.451171875-0.123046875t-0.3759765625-0.2119140625t-0.150390625-0.3212890625q0-0.21875,0.2666015625-0.3076171875t0.4306640625-0.0888671875q0.615234375-0.2734375,1.09375-1.1416015625t0.7998046875-1.9072265625t0.4853515625-2.0576171875t0.1640625-1.6611328125q0-0.369140625-0.109375-0.984375t-0.3349609375-1.216796875t-0.615234375-1.0390625t-0.9228515625-0.4375q-0.642578125,0-1.025390625,0.6630859375t-0.6015625,1.544921875t-0.2939453125,1.818359375t-0.0751953125,1.4697265625q0,0.341796875,0.1162109375,0.6767578125t0.2666015625,0.669921875t0.2666015625,0.68359375t0.1162109375,0.6904296875q0,0.1640625-0.1435546875,0.2734375t-0.3349609375,0.177734375t-0.4033203125,0.0888671875t-0.3212890625,0.0205078125q-0.779296875,0-1.080078125-0.369140625t-0.51953125-1.0390625q-0.478515625-1.517578125-0.6630859375-3.0830078125t-0.1845703125-3.1376953125z M192.312890625,60.25390625q0-0.396484375,0.0341796875-0.833984375t0.0615234375-0.8203125l0.08203125-2.05078125q0.13671875-2.4609375,0.3349609375-4.83984375t0.3349609375-4.8125q0.08203125-1.33984375,0.123046875-2.6318359375t0.123046875-2.6318359375q-0.0546875-0.109375-0.0546875-0.150390625q0-0.19140625,0.1435546875-0.30078125t0.3349609375-0.1845703125t0.4033203125-0.1025390625t0.3212890625-0.02734375l0.314453125,0q0.423828125,0.0546875,0.615234375,0.2666015625t0.24609375,0.505859375t0.02734375,0.62890625t-0.02734375,0.6220703125q0,1.982421875-0.095703125,4.0400390625t-0.21875,4.12890625t-0.2255859375,4.142578125t-0.1025390625,4.0947265625l0,0.95703125q0,0.642578125-0.3623046875,0.84765625t-1.0048828125,0.205078125q-0.560546875,0-0.984375-0.24609375t-0.423828125-0.806640625z M198.31033203125,55.66015625q0-0.779296875,0.1982421875-1.6064453125t0.62890625-1.490234375t1.0869140625-1.080078125t1.5859375-0.4169921875q0.697265625,0,1.4697265625,0.2392578125t1.4150390625,0.68359375t1.0458984375,1.0869140625t0.4033203125,1.435546875q0,0.95703125-0.3486328125,1.818359375t-0.9775390625,1.5380859375t-1.4697265625,1.06640625t-1.8251953125,0.3896484375q-0.806640625,0-1.408203125-0.2939453125t-1.0048828125-0.7861328125t-0.6015625-1.162109375t-0.1982421875-1.421875z M200.32009765625,55.6328125q0,0.24609375,0.0751953125,0.724609375t0.2255859375,0.9365234375t0.3896484375,0.79296875t0.5810546875,0.3076171875q0.724609375-0.08203125,1.1962890625-0.4716796875t0.765625-0.9501953125t0.41015625-1.216796875t0.1162109375-1.244140625q0-0.751953125-0.2939453125-1.2578125t-0.9638671875-0.8203125q0,0.02734375,0.02734375,0.02734375t0.02734375-0.02734375l-0.341796875-0.08203125q-0.13671875-0.0546875-0.3349609375-0.123046875t-0.3896484375-0.30078125q-0.533203125,0.19140625-0.8271484375,0.4921875t-0.4443359375,0.7314453125t-0.1845703125,1.0322265625t-0.0341796875,1.44921875z M208.6691015625,54.921875q0-0.751953125,0.1435546875-1.6064453125t0.4921875-1.5654296875t0.9638671875-1.17578125t1.572265625-0.46484375q0.642578125,0,1.244140625,0.2119140625t1.134765625,0.5810546875q0.1640625-0.2734375,0.51953125-0.3349609375t0.62890625-0.0615234375q0.109375,0,0.3076171875,0.013671875t0.3896484375,0.08203125t0.3349609375,0.1640625t0.1708984375,0.2734375q0.109375,0.95703125,0.150390625,1.9072265625t0.123046875,1.8935546875q0.13671875,1.763671875,0.423828125,3.486328125t0.287109375,3.486328125q0,0.833984375-0.0751953125,1.8046875t-0.396484375,1.7978515625t-0.9365234375,1.3740234375t-1.708984375,0.546875q-0.984375,0-1.5107421875-0.3486328125t-0.9501953125-1.1689453125q0.02734375-0.2734375,0.3486328125-0.3623046875t0.5537109375-0.0888671875q0.21875,0,0.4443359375,0.041015625t0.3623046875,0.13671875l0.341796875,0.21875q0.505859375-1.0390625,0.615234375-2.26953125t0.109375-2.37890625q0-0.95703125-0.095703125-1.8935546875t-0.19140625-1.8798828125q-0.95703125,1.736328125-2.912109375,1.736328125q-0.90234375,0-1.4697265625-0.3828125t-0.875-0.970703125t-0.423828125-1.326171875t-0.1162109375-1.4765625z M210.3507421875,55.044921875q0,0.341796875,0.02734375,0.8818359375t0.1435546875,1.0595703125t0.3349609375,0.8955078125t0.615234375,0.3759765625q0.751953125,0,1.189453125-0.587890625t0.6904296875-1.4013671875t0.4033203125-1.681640625t0.3828125-1.4287109375q-0.02734375-0.19140625-0.02734375-0.3759765625l0-0.3759765625q-0.314453125-0.587890625-0.916015625-1.0185546875t-1.244140625-0.5810546875q-0.08203125-0.013671875-0.150390625-0.013671875q-0.3828125,0-0.62890625,0.451171875q-0.314453125,0.546875-0.4921875,1.3056640625t-0.2529296875,1.4970703125t-0.0751953125,0.998046875z"/></svg>
